<?xml version="1.0" encoding="utf-8"?>
<!-- Generator: Adobe Illustrator 22.1.0, SVG Export Plug-In . SVG Version: 6.00 Build 0)  -->
<svg version="1.1" xmlns="http://www.w3.org/2000/svg" xmlns:xlink="http://www.w3.org/1999/xlink" x="0px" y="0px"
	 viewBox="0 0 121 133" style="enable-background:new 0 0 121 133;" xml:space="preserve">
<style type="text/css">
	.st0{fill:#F3F3F3;}
	.st1{fill:#EF5480;}
	.st2{fill:#601155;}
	.st3{fill:#FFFFFF;}
	.st4{fill:#FFDE55;}
	.st5{fill:#74DAE2;}
</style>
<g id="bg-white">
</g>
<g id="icons">
	<g>
		<path class="st0" d="M91.2,48.1c-2.9-0.1-5,0.9-6.5,2.5V23.3c0-4.9-4-8.9-8.9-8.9c-2.5,0-4.8,1.1-6.4,2.8v-1.4
			c0-4.9-4-8.9-8.9-8.9s-8.9,4-8.9,8.9v1.4c-1.6-1.7-3.9-2.8-6.4-2.8c-4.9,0-8.9,4-8.9,8.9v10.4c-1.6-1.7-3.9-2.8-6.4-2.8
			c-4.9,0-8.9,4-8.9,8.9v46.9c0,21.8,17.7,39.5,39.5,39.5c21.8,0,39.5-17.7,39.5-39.5V56.9C100,51.3,95.6,48.2,91.2,48.1z
			 M97.1,86.7c0,20.2-16.4,36.6-36.6,36.6c-20.2,0-36.6-16.4-36.6-36.6V39.8c0-3.3,2.7-6,6-6c3.3,0,6,2.7,6,6v27.9
			c0,0.9,0.8,1.7,1.7,1.7c0.9,0,1.7-0.8,1.7-1.7V23.3c0-3.3,2.7-6,6-6c3.3,0,6,2.7,6,6v41.1c0,0.9,0.8,1.7,1.7,1.7s1.7-0.8,1.7-1.7
			V15.7c0-3.3,2.7-6,6-6c3.3,0,6,2.7,6,6v48.8c0,0.9,0.8,1.7,1.7,1.7s1.7-0.8,1.7-1.7V23.3c0-3.3,2.7-6,6-6s6,2.7,6,6v55
			C71.4,78.7,62.1,83.9,58,91.6c-0.4,0.8-0.1,1.8,0.7,2.3c0.8,0.4,1.9,0.1,2.3-0.7c3.7-6.8,12.5-11.5,22-11.6
			c1.2,0.3,2.1-0.6,2.1-1.6l0-23.5c0.2-4.1,3.4-5.5,6-5.4c2.9,0.1,5.9,2,5.9,6V86.7z"/>
		<path class="st0" d="M91.2,47L91.2,47c-2.1,0-3.9,0.4-5.5,1.3V23.3c0-5.5-4.5-9.9-9.9-9.9c-1.9,0-3.8,0.5-5.4,1.6
			c-0.4-5.1-4.7-9.1-9.9-9.1c-5.2,0-9.5,4-9.9,9.1c-1.6-1-3.4-1.6-5.4-1.6c-5.5,0-9.9,4.5-9.9,9.9v8.1c-1.6-1-3.4-1.6-5.3-1.6
			c-5.5,0-9.9,4.5-9.9,9.9v46.9c0,22.4,18.2,40.5,40.5,40.5c22.4,0,40.5-18.2,40.5-40.5V56.9C101,50.6,96.1,47.1,91.2,47z
			 M100.1,86.7c0,21.8-17.8,39.6-39.6,39.6c-21.8,0-39.6-17.8-39.6-39.6V39.8c0-5,4-9,9-9c2,0,3.9,0.7,5.5,1.9l0.7,0.6v-10
			c0-5,4-9,9-9c2,0,3.9,0.7,5.5,1.9l0.7,0.5v-0.9c0-5,4-9,9-9c5,0,9,4,9,9.1v0.9l0.7-0.6c1.6-1.2,3.5-1.9,5.5-1.9c5,0,9,4,9,9v26.8
			l0.7-0.5c1.5-1.1,3.4-1.7,5.6-1.6c4.4,0.1,8.9,3.2,8.9,9V86.7z"/>
	</g>
</g>
</svg>
