<?xml version="1.0" encoding="utf-8"?>
<!-- Generator: Adobe Illustrator 22.1.0, SVG Export Plug-In . SVG Version: 6.00 Build 0)  -->
<svg version="1.1" xmlns="http://www.w3.org/2000/svg" xmlns:xlink="http://www.w3.org/1999/xlink" x="0px" y="0px"
	 viewBox="0 0 121 133" style="enable-background:new 0 0 121 133;" xml:space="preserve">
<style type="text/css">
	.st0{fill:#F3F3F3;}
	.st1{fill:#EF5480;}
	.st2{fill:#601155;}
	.st3{fill:#FFFFFF;}
	.st4{fill:#FFDE55;}
	.st5{fill:#74DAE2;}
</style>
<g id="bg-white">
</g>
<g id="icons">
	<path class="st0" d="M94.9,39.8h-0.3V28.1c0-7-5.7-12.6-12.6-12.6c-2.9,0-5.7,1-7.9,2.8c-1.9-4.8-6.5-7.9-11.7-7.9
		c-3.8,0-7.4,1.7-9.8,4.7c-2.4-3-6-4.7-9.8-4.7c-5.2,0-9.8,3.1-11.7,7.9c-2.2-1.8-5-2.8-7.9-2.8c-7,0-12.6,5.7-12.6,12.6v44.6
		c0,27.6,22.5,50.1,50,50.1c27.6,0,50.1-22.5,50.1-50.1V55.4C110.5,46.8,103.5,39.8,94.9,39.8z M60.5,117.8
		c-24.9,0-45.2-20.3-45.2-45.2V60.1c2.1,1.9,4.9,2.9,7.7,2.9c3.9,0,7.6-2,9.8-5.2c2.2,3.2,5.9,5.2,9.8,5.2c3.9,0,7.6-2,9.8-5.2
		c2.2,3.2,5.9,5.2,9.8,5.2c2.8,0,5.5-1,7.7-2.8c2.1,1.9,4.7,2.9,7.5,2.9h8.4l0,2.9C73,66.5,61.4,72.9,56.3,82.5
		c-0.3,0.5-0.3,1-0.2,1.6c0.2,0.5,0.5,1,1,1.2c1,0.5,2.3,0.1,2.8-0.8c4.6-8.6,15.7-14.3,27.6-14.3c0.1,0,0.1,0,0.2,0
		c0.1,0,0.1,0,0.2,0c1.1,0,2.1-0.9,2.1-2.1l0-7c0-0.5-0.2-1.1-0.6-1.5C89,59.2,88.5,59,87.9,59H77.5c-3.9,0-7.1-3.2-7.1-7.1
		c0-3.9,3.2-7.1,7.1-7.1h17.4c5.9,0,10.8,4.8,10.8,10.8v17.2C105.7,97.5,85.4,117.8,60.5,117.8z M23.1,20.3c4.3,0,7.7,3.5,7.7,7.7
		v23.1c0,4.3-3.5,7.7-7.7,7.7c-4.3,0-7.7-3.5-7.7-7.7V28.1C15.3,23.8,18.8,20.3,23.1,20.3z M42.7,15.2c4.3,0,7.7,3.5,7.7,7.7v28.2
		c0,4.3-3.5,7.7-7.7,7.7S35,55.4,35,51.2V23C35,18.7,38.4,15.2,42.7,15.2z M67.5,56.9c-1.4,1.3-3.2,2-5.2,2c-4.3,0-7.7-3.5-7.7-7.7
		V23c0-4.3,3.5-7.7,7.7-7.7s7.7,3.5,7.7,7.7v20.4c-2.4,2.1-3.8,5.2-3.8,8.4C66.3,53.6,66.7,55.3,67.5,56.9z M74.2,28.1
		c0-4.3,3.5-7.7,7.7-7.7c4.3,0,7.7,3.5,7.7,7.7v12.5H77.5c-1.1,0-2.2,0.2-3.3,0.5V28.1z"/>
</g>
</svg>
