<?xml version="1.0" encoding="utf-8"?>
<!-- Generator: Adobe Illustrator 22.1.0, SVG Export Plug-In . SVG Version: 6.00 Build 0)  -->
<svg version="1.1" xmlns="http://www.w3.org/2000/svg" xmlns:xlink="http://www.w3.org/1999/xlink" x="0px" y="0px"
	 viewBox="0 0 121 133" style="enable-background:new 0 0 121 133;" xml:space="preserve">
<style type="text/css">
	.st0{fill:#F3F3F3;}
	.st1{fill:#EF5480;}
	.st2{fill:#601155;}
	.st3{fill:#FFFFFF;}
	.st4{fill:#FFDE55;}
	.st5{fill:#74DAE2;}
</style>
<g id="bg-white">
</g>
<g id="icons">
	<path class="st0" d="M90.4,57.7h-0.2L99.2,24c0.7-2.6,0.3-5.2-1-7.5c-1.3-2.3-3.5-3.9-6-4.6c-5.3-1.4-10.7,1.8-12.1,7L74.7,39V15.3
		c0-5.5-4.4-9.9-9.9-9.9s-9.9,4.4-9.9,9.9v20.9c-1.6-1.1-3.5-1.7-5.5-1.7c-4.1,0-7.7,2.5-9.2,6.2c-1.8-1.4-3.9-2.2-6.2-2.2
		c-5.5,0-9.9,4.5-9.9,9.9v35c0,21.7,17.6,39.3,39.3,39.3c21.7,0,39.3-17.6,39.3-39.3V70C102.7,63.2,97.1,57.7,90.4,57.7z M63.3,119
		c-19.6,0-35.5-15.9-35.5-35.5v-9.8c1.7,1.4,3.8,2.3,6.1,2.3c3.1,0,6-1.5,7.7-4.1c1.7,2.5,4.6,4.1,7.7,4.1c5.2,0,9.3-4.2,9.3-9.3
		V54.9c0-0.1,0-0.1,0-0.2V15.3c0-3.3,2.7-6,6-6c3.3,0,6,2.7,6,6v39.9c0,0.2,0,0.4,0.1,0.5c0.1,0.6,0.6,1.2,1.2,1.3
		c0.4,0.1,0.9,0.1,1.2-0.2c0.4-0.2,0.7-0.6,0.8-1l9.7-36c0.9-3.2,4.2-5.1,7.4-4.3c1.6,0.4,2.9,1.4,3.7,2.8c0.8,1.4,1,3,0.6,4.6
		L86,58.3h-9.3c-4.9,0-8.9,4-8.9,8.9c0,4.9,4,8.9,8.9,8.9h6.5l0,2.2c-10.3,0.3-19.5,5.4-23.5,13c-0.4,0.8-0.1,1.8,0.7,2.2
		c0.8,0.4,1.8,0.1,2.2-0.7c3.6-6.7,12.3-11.3,21.7-11.3c0.1,0,0.2,0,0.3,0c1.1,0.2,2-0.6,2-1.6v-5.5c0-0.4-0.2-0.8-0.5-1.2
		c-0.3-0.3-0.7-0.5-1.2-0.5h-8.2c-3.1,0-5.6-2.5-5.6-5.6c0-3.1,2.5-5.6,5.6-5.6h13.6c4.7,0,8.4,3.8,8.4,8.4v13.5
		C98.8,103,82.9,119,63.3,119z M33.9,42.4c3.3,0,6.1,2.7,6.1,6.1v18.2c0,3.3-2.7,6.1-6.1,6.1c-3.3,0-6.1-2.7-6.1-6.1V48.5
		C27.9,45.1,30.6,42.4,33.9,42.4z M49.3,38.4c3.3,0,6.1,2.7,6.1,6.1v22.2c0,3.3-2.7,6.1-6.1,6.1s-6.1-2.7-6.1-6.1V44.5
		C43.3,41.1,46,38.4,49.3,38.4z"/>
</g>
</svg>
